HIERARCHY
ROOT hip
{
	OFFSET 0.000000 0.000000 0.000000 
	CHANNELS 6 Xposition Yposition Zposition Xrotation Zrotation Yrotation
	JOINT abdomen
	{
		OFFSET 0.000000 3.402643 0.000000 
		CHANNELS 3 Xrotation Zrotation Yrotation
		JOINT chest
		{
			OFFSET 0.000000 8.438565 -0.680529 
			CHANNELS 3 Xrotation Zrotation Yrotation
			JOINT neck
			{
				OFFSET 0.000000 10.207942 -0.272212 
				CHANNELS 3 Xrotation Zrotation Yrotation
				JOINT head
				{
					OFFSET 0.000000 3.130431 0.000000 
					CHANNELS 3 Xrotation Zrotation Yrotation
					End Site
					{
						OFFSET 0.000000 3.130435 0.000000 
					}
				}
			}
			JOINT lCollar
			{
				OFFSET 3.470700 6.669187 -0.816635 
				CHANNELS 3 Yrotation Zrotation Xrotation
				JOINT lShldr
				{
					OFFSET 3.198488 0.000000 0.000000 
					CHANNELS 3 Zrotation Yrotation Xrotation
					JOINT lForeArm
					{
						OFFSET 10.139888 0.000000 0.000000 
						CHANNELS 3 Yrotation Zrotation Xrotation
						JOINT lHand
						{
							OFFSET 8.370511 0.000000 0.000000 
							CHANNELS 3 Zrotation Yrotation Xrotation
							End Site
							{
								OFFSET 4.083176 0.000000 0.000000 
							}
						}
					}
				}
			}
			JOINT rCollar
			{
				OFFSET -3.470700 6.669187 -0.816635 
				CHANNELS 3 Yrotation Zrotation Xrotation
				JOINT rShldr
				{
					OFFSET -3.198488 0.000000 0.000000 
					CHANNELS 3 Zrotation Yrotation Xrotation
					JOINT rForeArm
					{
						OFFSET -10.139888 0.000000 0.000000 
						CHANNELS 3 Yrotation Zrotation Xrotation
						JOINT rHand
						{
							OFFSET -8.370511 0.000000 0.000000 
							CHANNELS 3 Zrotation Yrotation Xrotation
							End Site
							{
								OFFSET -4.083176 0.000000 0.000000 
							}
						}
					}
				}
			}
		}
	}
	JOINT lThigh
	{
		OFFSET 5.308129 -1.633274 1.361059 
		CHANNELS 3 Xrotation Zrotation Yrotation
		JOINT lShin
		{
			OFFSET -2.041588 -20.007561 0.000000 
			CHANNELS 3 Xrotation Zrotation Yrotation
			JOINT lFoot
			{
				OFFSET 0.000000 -19.190928 -1.224953 
				CHANNELS 3 Xrotation Yrotation Zrotation
				End Site
				{
					OFFSET 0.000000 -2.449906 4.627600 
				}
			}
		}
	}
	JOINT rThigh
	{
		OFFSET -5.308129 -1.633274 1.361059 
		CHANNELS 3 Xrotation Zrotation Yrotation
		JOINT rShin
		{
			OFFSET 2.041588 -20.007561 0.000000 
			CHANNELS 3 Xrotation Zrotation Yrotation
			JOINT rFoot
			{
				OFFSET 0.000000 -19.190928 -1.224953 
				CHANNELS 3 Xrotation Yrotation Zrotation
				End Site
				{
					OFFSET 0.000000 -2.449906 4.627600 
				}
			}
		}
	}
}
MOTION
Frames: 20
Frame Time: 0.016667
7.610317 58.999275 -0.106042 8.291017 9.394530 -97.137077 11.406250 5.791016 -0.125968 -12.333983 5.644531 -1.932633 -8.603516 0.000000 0.000000 14.179687 3.417969 7.197265 -3.134766 -19.169922 -1.025391 -77.226563 -48.632809 56.005856 -49.179688 -0.888672 24.648438 1.640625 -3.408203 -1.054688 3.125000 19.150389 -1.038360 34.619141 32.294922 20.669281 88.720703 1.162109 -0.468750 -1.660156 3.378906 -30.507814 -26.050531 18.571676 -3.517960 34.589596 3.337906 1.159636 -12.778642 0.945450 -2.002022 -29.876968 -0.547047 4.730464 43.191681 -3.124548 -1.360950 -23.080069 2.791855 3.293669 
7.576901 58.956062 0.166254 7.802734 9.306641 -98.476563 10.976563 4.960938 -0.008921 -12.695313 5.019532 -1.425781 -8.603516 0.000000 0.000000 13.720703 2.998047 7.051292 -3.134766 -19.169922 -1.025391 -78.203125 -49.316406 59.970707 -50.234371 -0.908203 24.638826 1.640625 -3.408203 -2.734375 3.125000 19.150389 -1.038360 31.416016 32.089840 18.349609 90.585938 1.171875 -0.449219 -1.660156 3.378906 -29.980467 -25.764675 18.403830 -2.140687 35.150227 3.337547 1.193149 -12.972112 1.077087 -1.977503 -30.100897 -0.810914 5.552053 43.308769 -3.124180 -1.349487 -23.363850 3.117496 3.466734 
7.542765 58.904018 0.435771 7.363281 9.218749 -99.765625 10.732421 4.550781 0.029297 -12.871093 4.648438 -1.200381 -8.603516 0.000000 0.000000 13.457031 2.773437 7.099610 -3.134766 -19.169922 -1.025391 -78.906250 -50.429691 62.841797 -51.445313 -0.917969 24.619137 1.640625 -3.408203 -4.257813 3.125000 19.150389 -1.038360 27.841797 32.636719 16.494141 92.167969 1.162109 -0.429688 -1.660156 3.378906 -29.609371 -25.536369 18.261263 -0.987214 35.744171 3.302305 1.244694 -13.240025 1.295394 -1.951095 -30.354946 -1.025804 6.372389 43.495487 -3.124407 -1.366588 -23.680126 3.295080 3.571270 
7.506178 58.849030 0.689386 6.982422 9.169922 -101.044922 10.673829 4.394532 0.020280 -12.900390 4.433594 -1.161354 -8.603516 0.000000 0.000000 13.320313 2.705078 7.266086 -3.134766 -19.169922 -1.025391 -79.580078 -51.962891 65.060669 -52.539063 -0.927734 24.599766 1.640625 -3.408203 -5.810547 3.125000 19.150389 -1.038360 23.867188 33.720707 14.868704 93.574219 1.171875 -0.420122 -1.660156 3.378906 -29.570311 -25.298864 18.171183 0.134828 36.315838 3.273292 1.248986 -13.591374 1.548714 -1.882748 -30.648924 -1.113718 7.144842 43.680511 -3.134082 -1.358235 -24.201694 3.252912 3.579821 
7.463612 58.796745 0.917638 6.601562 9.130858 -102.363281 10.664063 4.277344 0.029297 -12.890625 4.248047 -1.122324 -8.603516 0.000000 0.000000 13.203125 2.666016 7.480923 -3.134766 -19.169922 -1.025391 -80.400391 -53.515625 67.111298 -53.486332 -0.937500 24.589844 1.640625 -3.408203 -7.470704 3.125000 19.150389 -1.038360 19.707031 34.794922 13.183594 94.892578 1.171875 -0.410156 -1.660156 3.378906 -29.941408 -25.050261 18.089615 1.196586 36.806255 3.279263 1.264968 -13.941288 1.911628 -1.787716 -30.994598 -1.152141 7.922999 43.965649 -3.131504 -1.383223 -24.832586 3.057262 3.560233 
7.420350 58.748581 1.114505 6.210938 9.130859 -103.631264 10.654297 4.160156 0.039063 -12.890625 4.042969 -1.064453 -8.603516 0.000000 0.000000 13.115233 2.646484 7.675782 -3.134766 -19.169922 -1.025391 -81.367188 -54.902344 69.023438 -54.355469 -0.947266 24.570475 1.640625 -3.408203 -9.228516 3.125000 19.150389 -1.038360 15.517577 35.693359 11.425780 96.162109 1.171875 -0.400590 -1.660156 3.378906 -30.576168 -24.822111 17.967186 2.128903 37.248524 3.262995 1.255396 -14.233301 2.398907 -1.701898 -31.386320 -1.191314 8.659525 44.290077 -3.112072 -1.381209 -25.488640 2.735041 3.467587 
7.381289 58.702778 1.271659 5.810547 9.160157 -104.773842 10.634766 4.062500 0.039754 -12.919922 3.847656 -1.063798 -8.603516 0.000000 0.000000 13.046875 2.656250 7.861781 -3.134766 -19.169922 -1.025391 -82.392578 -56.103512 70.742188 -55.185547 -0.957031 24.560547 1.640625 -3.408203 -11.132813 3.125000 19.150389 -1.038360 11.367187 36.425777 9.687500 97.353516 1.171875 -0.390625 -1.660156 3.378906 -31.220703 -24.662493 17.837523 2.934975 37.660397 3.259266 1.249644 -14.453044 2.876562 -1.565231 -31.791477 -1.250674 9.206022 44.672413 -3.085726 -1.346504 -25.961447 1.875909 3.130099 
7.346812 58.657089 1.384727 5.400391 9.169922 -105.769928 10.605469 3.916016 0.000000 -12.958983 3.603516 -1.102902 -8.603516 0.000000 0.000000 13.017578 2.675682 8.047605 -3.134766 -19.169922 -1.025391 -83.349609 -57.128910 72.275391 -56.025391 -0.957031 24.550781 1.640625 -3.398438 -13.115233 3.125000 19.150389 -1.038360 7.343750 37.001953 8.052752 98.505859 1.171875 -0.381059 -1.669922 3.388672 -31.796297 -24.544146 17.631512 3.544172 38.045624 3.243703 1.288793 -14.625875 3.399781 -1.479798 -32.206478 -1.396512 9.559279 45.095486 -3.085676 -1.398924 -26.159937 0.107333 2.374069 
7.313393 58.610455 1.452764 5.009766 9.169923 -106.600006 10.585938 3.789063 -0.048183 -12.978517 3.369141 -1.171875 -8.603516 0.000000 0.000000 12.988280 2.675781 8.222657 -3.134766 -19.169922 -1.025391 -84.335938 -57.978519 73.730461 -56.914063 -0.966797 24.541180 1.640625 -3.398438 -15.107422 3.125000 19.150389 -1.038360 3.417969 37.421875 6.480545 99.619141 1.181641 -0.361530 -1.669922 3.388672 -32.450596 -24.440382 17.409821 4.018698 38.339916 3.233309 1.272774 -14.758042 3.940163 -1.329487 -32.587677 -1.591714 9.656060 45.574951 -3.092821 -1.405216 -26.144491 -2.314149 1.368879 
7.279623 58.565830 1.472994 4.707031 9.160156 -107.312897 10.605469 3.720703 -0.078125 -12.978517 3.203125 -1.220692 -8.603516 0.000000 0.000000 12.949219 2.656250 8.359827 -3.134766 -19.169922 -1.025391 -85.449219 -58.671879 75.147903 -57.812504 -0.976563 24.531250 1.650391 -3.408203 -16.963472 3.125000 19.150389 -1.038360 -0.458984 37.724609 4.960937 100.732422 1.181641 -0.351764 -1.660156 3.378906 -33.281250 -24.324022 17.283508 4.331692 38.604836 3.233273 1.279459 -14.871964 4.451221 -1.205847 -32.921913 -1.739549 9.523087 45.986233 -3.078905 -1.384268 -25.715441 -4.260861 0.561393 
7.243729 58.526501 1.443473 4.531250 9.160156 -107.919930 10.625000 3.652344 -0.126331 -12.968749 3.085937 -1.317834 -8.603516 0.000000 0.000000 12.880860 2.636719 8.506243 -3.134766 -19.169922 -1.025391 -86.474609 -59.228519 76.378334 -58.710941 -0.986328 24.511721 1.640625 -3.398438 -18.505861 3.125000 19.150389 -1.038360 -4.101563 37.998047 3.619294 101.767578 1.181641 -0.351764 -1.660156 3.378906 -34.179688 -24.168234 17.303371 4.615663 38.801445 3.223600 1.273965 -14.982300 4.844894 -1.121189 -33.199921 -1.777448 9.359138 46.251297 -3.076317 -1.399563 -24.884394 -4.923762 0.319891 
7.205037 58.488937 1.359645 4.443359 9.130858 -108.437500 10.595703 3.476563 -0.204486 -12.978517 2.919922 -1.406250 -8.603516 0.000000 0.000000 12.851563 2.636719 8.633195 -3.134766 -19.169922 -1.025391 -87.382813 -59.560547 77.530647 -59.658207 -0.996094 24.492188 1.650391 -3.398438 -19.736904 3.125000 19.150389 -1.038360 -7.304687 38.193359 2.418147 102.666016 1.171875 -0.341797 -1.660156 3.378906 -34.794922 -23.954983 17.441410 4.867859 38.939888 3.216097 1.289252 -15.078969 5.109985 -1.073131 -33.417122 -1.737849 9.238729 46.417397 -3.073164 -1.386292 -23.811642 -4.410891 0.621175 
7.167028 58.445255 1.218107 4.394532 9.082031 -108.846115 10.576172 3.261719 -0.273438 -12.978517 2.724609 -1.474609 -8.603516 0.000000 0.000000 12.861328 2.656250 8.730922 -3.134766 -19.169922 -1.025391 -88.281250 -59.658207 78.692749 -60.615238 -1.005859 24.492188 1.640625 -3.398438 -20.556639 3.125000 19.150389 -1.038360 -10.097656 38.222656 1.285341 103.427734 1.181641 -0.341998 -1.660156 3.378906 -35.009762 -23.704556 17.670269 5.156796 39.009048 3.229966 1.331986 -15.167816 5.192910 -1.035424 -33.563168 -1.659852 9.181253 46.565788 -3.063537 -1.409402 -22.863224 -3.448930 1.051531 
7.133268 58.393440 1.020716 4.316406 8.994142 -109.139099 10.556642 3.095703 -0.341270 -12.978517 2.529297 -1.552734 -8.603516 0.000000 0.000000 12.890625 2.675781 8.798827 -3.134766 -19.169922 -1.025391 -89.189453 -59.580074 79.630249 -61.494141 -1.005859 24.472828 1.650391 -3.398438 -20.752529 3.125000 19.150389 -1.038360 -12.519532 38.193359 0.195312 104.091797 1.191406 -0.322266 -1.660156 3.378906 -34.873047 -23.423750 17.906582 5.510142 39.016922 3.229715 1.283274 -15.242324 5.209818 -1.001481 -33.694538 -1.612393 9.083392 46.822468 -3.040170 -1.425313 -22.355839 -2.757191 1.306376 
7.102662 58.340687 0.780151 4.257813 8.876953 -109.306641 10.556642 2.968750 -0.419416 -12.978517 2.353516 -1.679676 -8.603516 0.000000 0.000000 12.880860 2.685547 8.877411 -3.134766 -19.169922 -1.025391 -90.009766 -59.355473 80.157608 -62.207035 -1.015625 24.462891 1.650391 -3.398438 -20.274015 3.125000 19.150389 -1.038360 -14.492188 38.173828 -0.800781 104.677734 1.181641 -0.322467 -1.660156 3.378906 -34.365234 -23.131382 18.141422 5.816671 38.996986 3.223526 1.261989 -15.316526 5.121225 -1.023786 -33.791454 -1.583080 8.818182 47.175236 -3.027830 -1.415231 -22.238287 -2.331081 1.472589 
7.074166 58.288994 0.506870 4.296875 8.769532 -109.295380 10.556642 2.812500 -0.526865 -12.968750 2.177734 -1.835566 -8.603516 0.000000 0.000000 12.861328 2.695313 8.955538 -3.134766 -19.169922 -1.025391 -90.673828 -59.023434 80.265060 -62.919922 -1.025391 24.443535 1.650391 -3.398438 -19.502531 3.125000 19.150389 -1.038360 -15.996093 38.105469 -1.771317 105.156250 1.191406 -0.322266 -1.660156 3.378906 -33.369141 -22.844812 18.470043 6.031406 38.927593 3.229657 1.255152 -15.374884 4.885154 -1.072250 -33.815899 -1.513732 8.364471 47.597477 -3.018100 -1.434085 -22.326721 -1.948157 1.619499 
7.048143 58.236946 0.213220 4.443358 8.710938 -109.130859 10.556641 2.587891 -0.634766 -12.949218 2.041015 -1.982074 -8.603516 0.000000 0.000000 12.822266 2.705078 9.003907 -3.134766 -19.169922 -1.025391 -91.308594 -58.593754 80.186981 -63.701172 -1.025391 24.433596 1.650391 -3.408203 -18.779879 3.125000 19.150389 -1.038360 -17.011717 37.919922 -2.747904 105.546875 1.191406 -0.312500 -1.669922 3.388672 -32.020908 -22.673243 18.923260 6.075243 38.880157 3.229747 1.294557 -15.421312 4.554123 -1.150826 -33.830711 -1.329305 7.728506 48.047295 -3.020672 -1.429272 -22.465929 -1.618568 1.722090 
7.022815 58.185604 -0.092039 4.667969 8.691406 -108.826645 10.566406 2.363281 -0.761719 -12.949219 1.943359 -2.128906 -8.603516 0.000000 0.000000 12.783204 2.685547 9.043426 -3.134766 -19.169922 -1.025391 -91.875000 -58.134766 80.011238 -64.482422 -1.035156 24.423830 1.650391 -3.408203 -18.096285 3.125000 19.150389 -1.038360 -17.617189 37.675781 -3.710938 105.917969 1.181641 -0.312701 -1.660156 3.378906 -30.810547 -22.593824 19.439449 6.021771 38.860222 3.223579 1.273287 -15.474916 4.202569 -1.230158 -33.836273 -1.093429 7.081376 48.489761 -2.995472 -1.441129 -22.616220 -1.482096 1.772345 
6.996072 58.133564 -0.398106 4.921875 8.671875 -108.457031 10.576172 2.158203 -0.868773 -12.939453 1.884766 -2.275390 -8.603516 0.000000 0.000000 12.744140 2.675781 9.091796 -3.134766 -19.169922 -1.025391 -92.373047 -57.714840 79.843750 -65.195313 -1.035156 24.414238 1.650391 -3.408203 -17.461519 3.125000 19.150389 -1.038360 -17.939455 37.460941 -4.560547 106.328133 1.191406 -0.312703 -1.660156 3.378906 -30.341797 -22.581512 19.944559 5.864653 38.879002 3.229684 1.265425 -15.512068 3.903180 -1.303441 -33.809124 -0.792397 6.498026 48.949993 -2.991494 -1.442392 -22.850981 -1.471581 1.777085 
6.972500 58.077629 -0.700273 5.107422 8.642578 -108.103996 10.576172 2.060547 -0.966446 -12.949219 1.845703 -2.431641 -8.603516 0.000000 0.000000 12.714844 2.666016 9.150390 -3.134766 -19.169922 -1.025391 -92.714844 -57.373043 79.658203 -65.849609 -1.044922 24.404474 1.650391 -3.408203 -16.904881 3.125000 19.150389 -1.038360 -18.076170 37.343754 -5.257747 106.757813 1.191406 -0.312500 -1.660156 3.378906 -30.654299 -22.552166 20.344793 5.695410 38.908386 3.229681 1.265087 -15.586145 3.647640 -1.362896 -33.787621 -0.537134 6.022923 49.430500 -2.979557 -1.449453 -23.113575 -1.523515 1.742217 
